# Blender 4.5.3 LTS
# www.blender.org
mtllib solid.mtl
o Cone
v -1.188189 0.474890 1.185697
v -1.077949 0.474890 1.196554
v -0.971945 0.474890 1.228710
v -0.874252 0.474890 1.280928
v -0.788623 0.474890 1.351202
v -0.718349 0.474890 1.436831
v -0.666131 0.474890 1.534525
v -0.633975 0.474890 1.640528
v -0.623118 0.474890 1.750768
v -0.633975 0.474890 1.861008
v -0.666131 0.474890 1.967011
v -0.718349 0.474890 2.064705
v -0.788623 0.474890 2.150334
v -0.874252 0.474890 2.220608
v -0.971945 0.474890 2.272826
v -1.077949 0.474890 2.304982
v -1.188189 0.474890 2.315839
v -1.298429 0.474890 2.304982
v -1.404432 0.474890 2.272826
v -1.502126 0.474890 2.220608
v -1.587754 0.474890 2.150334
v -1.658028 0.474890 2.064705
v -1.710247 0.474890 1.967011
v -1.742402 0.474890 1.861008
v -1.753260 0.474890 1.750768
v -1.742402 0.474890 1.640528
v -1.710247 0.474890 1.534525
v -1.658028 0.474890 1.436831
v -1.587754 0.474890 1.351202
v -1.502126 0.474890 1.280928
v -1.404432 0.474890 1.228710
v -1.298429 0.474890 1.196554
v -1.188189 1.605032 1.750768
vn -0.0000 0.4472 -0.8944
vn -0.0000 1.0000 -0.0000
vn 0.1745 0.4472 -0.8772
vn 0.3423 0.4472 -0.8263
vn 0.4969 0.4472 -0.7437
vn 0.6325 0.4472 -0.6325
vn 0.7437 0.4472 -0.4969
vn 0.8263 0.4472 -0.3423
vn 0.8772 0.4472 -0.1745
vn 0.8944 0.4472 -0.0000
vn 0.8772 0.4472 0.1745
vn 0.8263 0.4472 0.3423
vn 0.7437 0.4472 0.4969
vn 0.6325 0.4472 0.6325
vn 0.4969 0.4472 0.7437
vn 0.3423 0.4472 0.8263
vn 0.1745 0.4472 0.8772
vn -0.0000 0.4472 0.8944
vn -0.1745 0.4472 0.8772
vn -0.3423 0.4472 0.8263
vn -0.4969 0.4472 0.7437
vn -0.6325 0.4472 0.6325
vn -0.7437 0.4472 0.4969
vn -0.8263 0.4472 0.3423
vn -0.8772 0.4472 0.1745
vn -0.8944 0.4472 -0.0000
vn -0.8772 0.4472 -0.1745
vn -0.8263 0.4472 -0.3423
vn -0.7437 0.4472 -0.4969
vn -0.6325 0.4472 -0.6325
vn -0.4969 0.4472 -0.7437
vn -0.3423 0.4472 -0.8263
vn -0.0000 -1.0000 -0.0000
vn -0.1745 0.4472 -0.8772
vt 0.250000 0.490000
vt 0.250000 0.250000
vt 0.296822 0.485388
vt 0.341844 0.471731
vt 0.383337 0.449553
vt 0.419706 0.419706
vt 0.449553 0.383337
vt 0.471731 0.341844
vt 0.485388 0.296822
vt 0.490000 0.250000
vt 0.485388 0.203178
vt 0.471731 0.158156
vt 0.449553 0.116663
vt 0.419706 0.080294
vt 0.383337 0.050447
vt 0.341844 0.028269
vt 0.296822 0.014612
vt 0.250000 0.010000
vt 0.203178 0.014612
vt 0.158156 0.028269
vt 0.116663 0.050447
vt 0.080294 0.080294
vt 0.050447 0.116663
vt 0.028269 0.158156
vt 0.014612 0.203178
vt 0.010000 0.250000
vt 0.014612 0.296822
vt 0.028269 0.341844
vt 0.050447 0.383337
vt 0.080294 0.419706
vt 0.116663 0.449553
vt 0.158156 0.471731
vt 0.796822 0.014612
vt 0.514612 0.203178
vt 0.703178 0.485388
vt 0.203178 0.485388
vt 0.750000 0.490000
vt 0.796822 0.485388
vt 0.841844 0.471731
vt 0.883337 0.449553
vt 0.919706 0.419706
vt 0.949553 0.383337
vt 0.971731 0.341844
vt 0.985388 0.296822
vt 0.990000 0.250000
vt 0.985388 0.203178
vt 0.971731 0.158156
vt 0.949553 0.116663
vt 0.919706 0.080294
vt 0.883337 0.050447
vt 0.841844 0.028269
vt 0.750000 0.010000
vt 0.703178 0.014612
vt 0.658156 0.028269
vt 0.616663 0.050447
vt 0.580294 0.080294
vt 0.550447 0.116663
vt 0.528269 0.158156
vt 0.510000 0.250000
vt 0.514612 0.296822
vt 0.528269 0.341844
vt 0.550447 0.383337
vt 0.580294 0.419706
vt 0.616663 0.449553
vt 0.658156 0.471731
s 1
usemtl Material.002
f 1/1/1 33/2/2 2/3/3
f 2/3/3 33/2/2 3/4/4
f 3/4/4 33/2/2 4/5/5
f 4/5/5 33/2/2 5/6/6
f 5/6/6 33/2/2 6/7/7
f 6/7/7 33/2/2 7/8/8
f 7/8/8 33/2/2 8/9/9
f 8/9/9 33/2/2 9/10/10
f 9/10/10 33/2/2 10/11/11
f 10/11/11 33/2/2 11/12/12
f 11/12/12 33/2/2 12/13/13
f 12/13/13 33/2/2 13/14/14
f 13/14/14 33/2/2 14/15/15
f 14/15/15 33/2/2 15/16/16
f 15/16/16 33/2/2 16/17/17
f 16/17/17 33/2/2 17/18/18
f 17/18/18 33/2/2 18/19/19
f 18/19/19 33/2/2 19/20/20
f 19/20/20 33/2/2 20/21/21
f 20/21/21 33/2/2 21/22/22
f 21/22/22 33/2/2 22/23/23
f 22/23/23 33/2/2 23/24/24
f 23/24/24 33/2/2 24/25/25
f 24/25/25 33/2/2 25/26/26
f 25/26/26 33/2/2 26/27/27
f 26/27/27 33/2/2 27/28/28
f 27/28/28 33/2/2 28/29/29
f 28/29/29 33/2/2 29/30/30
f 29/30/30 33/2/2 30/31/31
f 30/31/31 33/2/2 31/32/32
f 16/33/33 24/34/33 32/35/33
f 31/32/32 33/2/2 32/36/34
f 32/36/34 33/2/2 1/1/1
f 32/35/33 1/37/33 2/38/33
f 2/38/33 3/39/33 4/40/33
f 4/40/33 5/41/33 6/42/33
f 6/42/33 7/43/33 8/44/33
f 8/44/33 9/45/33 10/46/33
f 10/46/33 11/47/33 12/48/33
f 12/48/33 13/49/33 14/50/33
f 14/50/33 15/51/33 16/33/33
f 16/33/33 17/52/33 18/53/33
f 18/53/33 19/54/33 20/55/33
f 20/55/33 21/56/33 22/57/33
f 22/57/33 23/58/33 24/34/33
f 24/34/33 25/59/33 26/60/33
f 26/60/33 27/61/33 28/62/33
f 28/62/33 29/63/33 30/64/33
f 30/64/33 31/65/33 32/35/33
f 32/35/33 2/38/33 4/40/33
f 4/40/33 6/42/33 8/44/33
f 8/44/33 10/46/33 12/48/33
f 12/48/33 14/50/33 16/33/33
f 16/33/33 18/53/33 20/55/33
f 20/55/33 22/57/33 24/34/33
f 24/34/33 26/60/33 28/62/33
f 28/62/33 30/64/33 32/35/33
f 32/35/33 4/40/33 8/44/33
f 8/44/33 12/48/33 16/33/33
f 16/33/33 20/55/33 24/34/33
f 24/34/33 28/62/33 32/35/33
f 32/35/33 8/44/33 16/33/33
o Cube
v -3.000000 -0.100000 3.000000
v -3.000000 0.100000 3.000000
v -3.000000 -0.100000 -3.000000
v -3.000000 0.100000 -3.000000
v 3.000000 -0.100000 3.000000
v 3.000000 0.100000 3.000000
v 3.000000 -0.100000 -3.000000
v 3.000000 0.100000 -3.000000
vn -1.0000 -0.0000 -0.0000
vn -0.0000 -0.0000 -1.0000
vn 1.0000 -0.0000 -0.0000
vn -0.0000 -0.0000 1.0000
vn -0.0000 -1.0000 -0.0000
vn -0.0000 1.0000 -0.0000
vt 0.625000 0.000000
vt 0.375000 0.250000
vt 0.375000 0.000000
vt 0.625000 0.250000
vt 0.375000 0.500000
vt 0.625000 0.500000
vt 0.375000 0.750000
vt 0.625000 0.750000
vt 0.375000 1.000000
vt 0.125000 0.750000
vt 0.125000 0.500000
vt 0.875000 0.500000
vt 0.625000 1.000000
vt 0.875000 0.750000
s 1
usemtl Material.001
f 35/66/35 36/67/35 34/68/35
f 37/69/36 40/70/36 36/67/36
f 41/71/37 38/72/37 40/70/37
f 39/73/38 34/74/38 38/72/38
f 40/70/39 34/75/39 36/76/39
f 37/77/40 39/73/40 41/71/40
f 35/66/35 37/69/35 36/67/35
f 37/69/36 41/71/36 40/70/36
f 41/71/37 39/73/37 38/72/37
f 39/73/38 35/78/38 34/74/38
f 40/70/39 38/72/39 34/75/39
f 37/77/40 35/79/40 39/73/40
o Cube.001
v -0.851864 0.100000 -1.588681
v -0.851864 0.700000 -1.588681
v -0.663388 0.100000 -1.019053
v -0.663388 0.700000 -1.019053
v -1.421493 0.100000 -1.400206
v -1.421493 0.700000 -1.400206
v -1.233017 0.100000 -0.830577
v -1.233017 0.700000 -0.830577
vn 0.9494 -0.0000 -0.3141
vn 0.3141 -0.0000 0.9494
vn -0.9494 -0.0000 0.3141
vn -0.3141 -0.0000 -0.9494
vn -0.0000 -1.0000 -0.0000
vn -0.0000 1.0000 -0.0000
vt 0.625000 0.000000
vt 0.375000 0.250000
vt 0.375000 0.000000
vt 0.625000 0.250000
vt 0.375000 0.500000
vt 0.625000 0.500000
vt 0.375000 0.750000
vt 0.625000 0.750000
vt 0.375000 1.000000
vt 0.125000 0.750000
vt 0.125000 0.500000
vt 0.875000 0.500000
vt 0.625000 1.000000
vt 0.875000 0.750000
s 1
usemtl Material.002
f 43/80/41 44/81/41 42/82/41
f 45/83/42 48/84/42 44/81/42
f 49/85/43 46/86/43 48/84/43
f 47/87/44 42/88/44 46/86/44
f 48/84/45 42/89/45 44/90/45
f 45/91/46 47/87/46 49/85/46
f 43/80/41 45/83/41 44/81/41
f 45/83/42 49/85/42 48/84/42
f 49/85/43 47/87/43 46/86/43
f 47/87/44 43/92/44 42/88/44
f 48/84/45 46/86/45 42/89/45
f 45/91/46 43/93/46 47/87/46
o Cube.002
v 0.472527 0.498950 2.457542
v 0.472527 1.098950 2.457542
v 0.368495 0.498950 1.866630
v 0.368495 1.098950 1.866630
v 1.063439 0.498950 2.353510
v 1.063439 1.098950 2.353510
v 0.959407 0.498950 1.762598
v 0.959407 1.098950 1.762598
vn -0.9849 -0.0000 0.1734
vn -0.1734 -0.0000 -0.9849
vn 0.9849 -0.0000 -0.1734
vn 0.1734 -0.0000 0.9849
vn -0.0000 -1.0000 -0.0000
vn -0.0000 1.0000 -0.0000
vt 0.625000 0.000000
vt 0.375000 0.250000
vt 0.375000 0.000000
vt 0.625000 0.250000
vt 0.375000 0.500000
vt 0.625000 0.500000
vt 0.375000 0.750000
vt 0.625000 0.750000
vt 0.375000 1.000000
vt 0.125000 0.750000
vt 0.125000 0.500000
vt 0.875000 0.500000
vt 0.625000 1.000000
vt 0.875000 0.750000
s 1
usemtl Material.002
f 51/94/47 52/95/47 50/96/47
f 53/97/48 56/98/48 52/95/48
f 57/99/49 54/100/49 56/98/49
f 55/101/50 50/102/50 54/100/50
f 56/98/51 50/103/51 52/104/51
f 53/105/52 55/101/52 57/99/52
f 51/94/47 53/97/47 52/95/47
f 53/97/48 57/99/48 56/98/48
f 57/99/49 55/101/49 54/100/49
f 55/101/50 51/106/50 50/102/50
f 56/98/51 54/100/51 50/103/51
f 53/105/52 51/107/52 55/101/52
o Cube.003
v 1.728133 0.301966 -0.926682
v 1.728133 0.901966 -0.926682
v 1.422098 0.301966 -1.442766
v 1.422098 0.901966 -1.442766
v 2.244217 0.301966 -1.232717
v 2.244217 0.901966 -1.232718
v 1.938182 0.301966 -1.748801
v 1.938182 0.901966 -1.748801
vn -0.8601 -0.0000 0.5101
vn -0.5101 -0.0000 -0.8601
vn 0.8601 -0.0000 -0.5101
vn 0.5101 -0.0000 0.8601
vn -0.0000 -1.0000 -0.0000
vn -0.0000 1.0000 -0.0000
vt 0.625000 0.000000
vt 0.375000 0.250000
vt 0.375000 0.000000
vt 0.625000 0.250000
vt 0.375000 0.500000
vt 0.625000 0.500000
vt 0.375000 0.750000
vt 0.625000 0.750000
vt 0.375000 1.000000
vt 0.125000 0.750000
vt 0.125000 0.500000
vt 0.875000 0.500000
vt 0.625000 1.000000
vt 0.875000 0.750000
s 1
usemtl Material.002
f 59/108/53 60/109/53 58/110/53
f 61/111/54 64/112/54 60/109/54
f 65/113/55 62/114/55 64/112/55
f 63/115/56 58/116/56 62/114/56
f 64/112/57 58/117/57 60/118/57
f 61/119/58 63/115/58 65/113/58
f 59/108/53 61/111/53 60/109/53
f 61/111/54 65/113/54 64/112/54
f 65/113/55 63/115/55 62/114/55
f 63/115/56 59/120/56 58/116/56
f 64/112/57 62/114/57 58/117/57
f 61/119/58 59/121/58 63/115/58
o Cube.004
v 1.571922 0.100000 1.322856
v 1.571922 0.700000 1.322856
v 1.924199 0.100000 0.837160
v 1.924199 0.700000 0.837160
v 2.057618 0.100000 1.675133
v 2.057618 0.700000 1.675133
v 2.409895 0.100000 1.189437
v 2.409895 0.700000 1.189437
vn -0.8095 -0.0000 -0.5871
vn 0.5871 -0.0000 -0.8095
vn 0.8095 -0.0000 0.5871
vn -0.5871 -0.0000 0.8095
vn -0.0000 -1.0000 -0.0000
vn -0.0000 1.0000 -0.0000
vt 0.625000 0.000000
vt 0.375000 0.250000
vt 0.375000 0.000000
vt 0.625000 0.250000
vt 0.375000 0.500000
vt 0.625000 0.500000
vt 0.375000 0.750000
vt 0.625000 0.750000
vt 0.375000 1.000000
vt 0.125000 0.750000
vt 0.125000 0.500000
vt 0.875000 0.500000
vt 0.625000 1.000000
vt 0.875000 0.750000
s 1
usemtl Material.002
f 67/122/59 68/123/59 66/124/59
f 69/125/60 72/126/60 68/123/60
f 73/127/61 70/128/61 72/126/61
f 71/129/62 66/130/62 70/128/62
f 72/126/63 66/131/63 68/132/63
f 69/133/64 71/129/64 73/127/64
f 67/122/59 69/125/59 68/123/59
f 69/125/60 73/127/60 72/126/60
f 73/127/61 71/129/61 70/128/61
f 71/129/62 67/134/62 66/130/62
f 72/126/63 70/128/63 66/131/63
f 69/133/64 67/135/64 71/129/64
o Cube.005
v 0.860526 0.100000 -1.184871
v 0.860526 0.700000 -1.184871
v 0.554491 0.100000 -1.700955
v 0.554491 0.700000 -1.700955
v 1.376610 0.100000 -1.490906
v 1.376610 0.700000 -1.490906
v 1.070575 0.100000 -2.006990
v 1.070575 0.700000 -2.006990
vn -0.8601 -0.0000 0.5101
vn -0.5101 -0.0000 -0.8601
vn 0.8601 -0.0000 -0.5101
vn 0.5101 -0.0000 0.8601
vn -0.0000 -1.0000 -0.0000
vn -0.0000 1.0000 -0.0000
vt 0.625000 0.000000
vt 0.375000 0.250000
vt 0.375000 0.000000
vt 0.625000 0.250000
vt 0.375000 0.500000
vt 0.625000 0.500000
vt 0.375000 0.750000
vt 0.625000 0.750000
vt 0.375000 1.000000
vt 0.125000 0.750000
vt 0.125000 0.500000
vt 0.875000 0.500000
vt 0.625000 1.000000
vt 0.875000 0.750000
s 1
usemtl Material.002
f 75/136/65 76/137/65 74/138/65
f 77/139/66 80/140/66 76/137/66
f 81/141/67 78/142/67 80/140/67
f 79/143/68 74/144/68 78/142/68
f 80/140/69 74/145/69 76/146/69
f 77/147/70 79/143/70 81/141/70
f 75/136/65 77/139/65 76/137/65
f 77/139/66 81/141/66 80/140/66
f 81/141/67 79/143/67 78/142/67
f 79/143/68 75/148/68 74/144/68
f 80/140/69 78/142/69 74/145/69
f 77/147/70 75/149/70 79/143/70
o Cylinder
v 0.000000 0.100000 -0.500000
v 0.000000 2.100000 -0.500001
v 0.097545 0.100000 -0.490392
v 0.097545 2.100000 -0.490393
v 0.191341 0.100000 -0.461940
v 0.191341 2.100000 -0.461941
v 0.277785 0.100000 -0.415735
v 0.277785 2.100000 -0.415736
v 0.353553 0.100000 -0.353553
v 0.353553 2.100000 -0.353554
v 0.415735 0.100000 -0.277785
v 0.415735 2.100000 -0.277786
v 0.461939 0.100000 -0.191342
v 0.461939 2.100000 -0.191342
v 0.490392 0.100000 -0.097545
v 0.490392 2.100000 -0.097546
v 0.500000 0.100000 -0.000000
v 0.500000 2.100000 -0.000001
v 0.490392 0.100000 0.097545
v 0.490392 2.100000 0.097544
v 0.461939 0.100000 0.191342
v 0.461939 2.100000 0.191341
v 0.415735 0.100000 0.277785
v 0.415735 2.100000 0.277784
v 0.353553 0.100000 0.353554
v 0.353553 2.100000 0.353553
v 0.277785 0.100000 0.415734
v 0.277785 2.100000 0.415734
v 0.191341 0.100000 0.461940
v 0.191341 2.100000 0.461939
v 0.097545 0.100000 0.490393
v 0.097545 2.100000 0.490392
v 0.000000 0.100000 0.500000
v 0.000000 2.100000 0.499999
v -0.097545 0.100000 0.490393
v -0.097545 2.100000 0.490392
v -0.191342 0.100000 0.461940
v -0.191342 2.100000 0.461939
v -0.277785 0.100000 0.415734
v -0.277785 2.100000 0.415734
v -0.353554 0.100000 0.353554
v -0.353554 2.100000 0.353553
v -0.415735 0.100000 0.277785
v -0.415735 2.100000 0.277784
v -0.461940 0.100000 0.191342
v -0.461940 2.100000 0.191341
v -0.490393 0.100000 0.097545
v -0.490393 2.100000 0.097544
v -0.500000 0.100000 -0.000000
v -0.500000 2.100000 -0.000001
v -0.490393 0.100000 -0.097545
v -0.490393 2.100000 -0.097546
v -0.461940 0.100000 -0.191342
v -0.461940 2.100000 -0.191342
v -0.415735 0.100000 -0.277785
v -0.415735 2.100000 -0.277786
v -0.353554 0.100000 -0.353553
v -0.353554 2.100000 -0.353554
v -0.277785 0.100000 -0.415735
v -0.277785 2.100000 -0.415736
v -0.191342 0.100000 -0.461940
v -0.191342 2.100000 -0.461941
v -0.097545 0.100000 -0.490392
v -0.097545 2.100000 -0.490393
vn -0.0000 -0.0000 -1.0000
vn 0.1951 -0.0000 -0.9808
vn 0.3827 -0.0000 -0.9239
vn 0.5556 -0.0000 -0.8315
vn 0.7071 -0.0000 -0.7071
vn 0.8315 -0.0000 -0.5556
vn 0.9239 -0.0000 -0.3827
vn 0.9808 -0.0000 -0.1951
vn 1.0000 -0.0000 -0.0000
vn 0.9808 -0.0000 0.1951
vn 0.9239 -0.0000 0.3827
vn 0.8315 -0.0000 0.5556
vn 0.7071 -0.0000 0.7071
vn 0.5556 -0.0000 0.8315
vn 0.3827 -0.0000 0.9239
vn 0.1951 -0.0000 0.9808
vn -0.0000 -0.0000 1.0000
vn -0.1951 -0.0000 0.9808
vn -0.3827 -0.0000 0.9239
vn -0.5556 -0.0000 0.8315
vn -0.7071 -0.0000 0.7071
vn -0.8315 -0.0000 0.5556
vn -0.9239 -0.0000 0.3827
vn -0.9808 -0.0000 0.1951
vn -1.0000 -0.0000 -0.0000
vn -0.9808 -0.0000 -0.1951
vn -0.9239 -0.0000 -0.3827
vn -0.8315 -0.0000 -0.5556
vn -0.7071 -0.0000 -0.7071
vn -0.5556 -0.0000 -0.8315
vn -0.3827 -0.0000 -0.9239
vn -0.0000 1.0000 -0.0000
vn -0.1951 -0.0000 -0.9808
vn -0.0000 -1.0000 -0.0000
vt 1.000000 1.000000
vt 0.968750 0.500000
vt 1.000000 0.500000
vt 0.968750 1.000000
vt 0.937500 0.500000
vt 0.937500 1.000000
vt 0.906250 0.500000
vt 0.906250 1.000000
vt 0.875000 0.500000
vt 0.875000 1.000000
vt 0.843750 0.500000
vt 0.843750 1.000000
vt 0.812500 0.500000
vt 0.812500 1.000000
vt 0.781250 0.500000
vt 0.781250 1.000000
vt 0.750000 0.500000
vt 0.750000 1.000000
vt 0.718750 0.500000
vt 0.718750 1.000000
vt 0.687500 0.500000
vt 0.687500 1.000000
vt 0.656250 0.500000
vt 0.656250 1.000000
vt 0.625000 0.500000
vt 0.625000 1.000000
vt 0.593750 0.500000
vt 0.593750 1.000000
vt 0.562500 0.500000
vt 0.562500 1.000000
vt 0.531250 0.500000
vt 0.531250 1.000000
vt 0.500000 0.500000
vt 0.500000 1.000000
vt 0.468750 0.500000
vt 0.468750 1.000000
vt 0.437500 0.500000
vt 0.437500 1.000000
vt 0.406250 0.500000
vt 0.406250 1.000000
vt 0.375000 0.500000
vt 0.375000 1.000000
vt 0.343750 0.500000
vt 0.343750 1.000000
vt 0.312500 0.500000
vt 0.312500 1.000000
vt 0.281250 0.500000
vt 0.281250 1.000000
vt 0.250000 0.500000
vt 0.250000 1.000000
vt 0.218750 0.500000
vt 0.218750 1.000000
vt 0.187500 0.500000
vt 0.187500 1.000000
vt 0.156250 0.500000
vt 0.156250 1.000000
vt 0.125000 0.500000
vt 0.125000 1.000000
vt 0.093750 0.500000
vt 0.093750 1.000000
vt 0.062500 0.500000
vt 0.158156 0.028269
vt 0.471731 0.158156
vt 0.341844 0.471731
vt 0.062500 1.000000
vt 0.031250 0.500000
vt 0.031250 1.000000
vt 0.000000 0.500000
vt 0.796822 0.014612
vt 0.514612 0.203178
vt 0.703178 0.485388
vt 0.296822 0.485388
vt 0.250000 0.490000
vt 0.203178 0.485388
vt 0.158156 0.471731
vt 0.116663 0.449553
vt 0.080294 0.419706
vt 0.050447 0.383337
vt 0.028269 0.341844
vt 0.014612 0.296822
vt 0.010000 0.250000
vt 0.014612 0.203178
vt 0.028269 0.158156
vt 0.050447 0.116663
vt 0.080294 0.080294
vt 0.116663 0.050447
vt 0.203178 0.014612
vt 0.250000 0.010000
vt 0.296822 0.014612
vt 0.341844 0.028269
vt 0.383337 0.050447
vt 0.419706 0.080294
vt 0.449553 0.116663
vt 0.485388 0.203178
vt 0.490000 0.250000
vt 0.485388 0.296822
vt 0.471731 0.341844
vt 0.449553 0.383337
vt 0.419706 0.419706
vt 0.383337 0.449553
vt 0.000000 1.000000
vt 0.750000 0.490000
vt 0.796822 0.485388
vt 0.841844 0.471731
vt 0.883337 0.449553
vt 0.919706 0.419706
vt 0.949553 0.383337
vt 0.971731 0.341844
vt 0.985388 0.296822
vt 0.990000 0.250000
vt 0.985388 0.203178
vt 0.971731 0.158156
vt 0.949553 0.116663
vt 0.919706 0.080294
vt 0.883337 0.050447
vt 0.841844 0.028269
vt 0.750000 0.010000
vt 0.703178 0.014612
vt 0.658156 0.028269
vt 0.616663 0.050447
vt 0.580294 0.080294
vt 0.550447 0.116663
vt 0.528269 0.158156
vt 0.510000 0.250000
vt 0.514612 0.296822
vt 0.528269 0.341844
vt 0.550447 0.383337
vt 0.580294 0.419706
vt 0.616663 0.449553
vt 0.658156 0.471731
s 1
usemtl Material.002
f 83/150/71 84/151/72 82/152/71
f 85/153/72 86/154/73 84/151/72
f 87/155/73 88/156/74 86/154/73
f 89/157/74 90/158/75 88/156/74
f 91/159/75 92/160/76 90/158/75
f 93/161/76 94/162/77 92/160/76
f 95/163/77 96/164/78 94/162/77
f 97/165/78 98/166/79 96/164/78
f 99/167/79 100/168/80 98/166/79
f 101/169/80 102/170/81 100/168/80
f 103/171/81 104/172/82 102/170/81
f 105/173/82 106/174/83 104/172/82
f 107/175/83 108/176/84 106/174/83
f 109/177/84 110/178/85 108/176/84
f 111/179/85 112/180/86 110/178/85
f 113/181/86 114/182/87 112/180/86
f 115/183/87 116/184/88 114/182/87
f 117/185/88 118/186/89 116/184/88
f 119/187/89 120/188/90 118/186/89
f 121/189/90 122/190/91 120/188/90
f 123/191/91 124/192/92 122/190/91
f 125/193/92 126/194/93 124/192/92
f 127/195/93 128/196/94 126/194/93
f 129/197/94 130/198/95 128/196/94
f 131/199/95 132/200/96 130/198/95
f 133/201/96 134/202/97 132/200/96
f 135/203/97 136/204/98 134/202/97
f 137/205/98 138/206/99 136/204/98
f 139/207/99 140/208/100 138/206/99
f 141/209/100 142/210/101 140/208/100
f 119/211/102 103/212/102 87/213/102
f 143/214/101 144/215/103 142/210/101
f 145/216/103 82/217/71 144/215/103
f 112/218/104 128/219/104 144/220/104
f 83/150/71 85/153/72 84/151/72
f 85/153/72 87/155/73 86/154/73
f 87/155/73 89/157/74 88/156/74
f 89/157/74 91/159/75 90/158/75
f 91/159/75 93/161/76 92/160/76
f 93/161/76 95/163/77 94/162/77
f 95/163/77 97/165/78 96/164/78
f 97/165/78 99/167/79 98/166/79
f 99/167/79 101/169/80 100/168/80
f 101/169/80 103/171/81 102/170/81
f 103/171/81 105/173/82 104/172/82
f 105/173/82 107/175/83 106/174/83
f 107/175/83 109/177/84 108/176/84
f 109/177/84 111/179/85 110/178/85
f 111/179/85 113/181/86 112/180/86
f 113/181/86 115/183/87 114/182/87
f 115/183/87 117/185/88 116/184/88
f 117/185/88 119/187/89 118/186/89
f 119/187/89 121/189/90 120/188/90
f 121/189/90 123/191/91 122/190/91
f 123/191/91 125/193/92 124/192/92
f 125/193/92 127/195/93 126/194/93
f 127/195/93 129/197/94 128/196/94
f 129/197/94 131/199/95 130/198/95
f 131/199/95 133/201/96 132/200/96
f 133/201/96 135/203/97 134/202/97
f 135/203/97 137/205/98 136/204/98
f 137/205/98 139/207/99 138/206/99
f 139/207/99 141/209/100 140/208/100
f 141/209/100 143/214/101 142/210/101
f 87/213/102 85/221/102 83/222/102
f 83/222/102 145/223/102 143/224/102
f 143/224/102 141/225/102 139/226/102
f 139/226/102 137/227/102 135/228/102
f 135/228/102 133/229/102 131/230/102
f 131/230/102 129/231/102 127/232/102
f 127/232/102 125/233/102 123/234/102
f 123/234/102 121/235/102 119/211/102
f 119/211/102 117/236/102 115/237/102
f 115/237/102 113/238/102 111/239/102
f 111/239/102 109/240/102 107/241/102
f 107/241/102 105/242/102 103/212/102
f 103/212/102 101/243/102 99/244/102
f 99/244/102 97/245/102 95/246/102
f 95/246/102 93/247/102 91/248/102
f 91/248/102 89/249/102 87/213/102
f 87/213/102 83/222/102 143/224/102
f 143/224/102 139/226/102 135/228/102
f 135/228/102 131/230/102 127/232/102
f 127/232/102 123/234/102 119/211/102
f 119/211/102 115/237/102 111/239/102
f 111/239/102 107/241/102 103/212/102
f 103/212/102 99/244/102 95/246/102
f 95/246/102 91/248/102 87/213/102
f 87/213/102 143/224/102 135/228/102
f 135/228/102 127/232/102 119/211/102
f 119/211/102 111/239/102 103/212/102
f 103/212/102 95/246/102 87/213/102
f 87/213/102 135/228/102 119/211/102
f 143/214/101 145/216/103 144/215/103
f 145/216/103 83/250/71 82/217/71
f 144/220/104 82/251/104 84/252/104
f 84/252/104 86/253/104 88/254/104
f 88/254/104 90/255/104 92/256/104
f 92/256/104 94/257/104 96/258/104
f 96/258/104 98/259/104 100/260/104
f 100/260/104 102/261/104 104/262/104
f 104/262/104 106/263/104 108/264/104
f 108/264/104 110/265/104 112/218/104
f 112/218/104 114/266/104 116/267/104
f 116/267/104 118/268/104 120/269/104
f 120/269/104 122/270/104 124/271/104
f 124/271/104 126/272/104 128/219/104
f 128/219/104 130/273/104 132/274/104
f 132/274/104 134/275/104 136/276/104
f 136/276/104 138/277/104 140/278/104
f 140/278/104 142/279/104 144/220/104
f 144/220/104 84/252/104 88/254/104
f 88/254/104 92/256/104 96/258/104
f 96/258/104 100/260/104 104/262/104
f 104/262/104 108/264/104 112/218/104
f 112/218/104 116/267/104 120/269/104
f 120/269/104 124/271/104 128/219/104
f 128/219/104 132/274/104 136/276/104
f 136/276/104 140/278/104 144/220/104
f 144/220/104 88/254/104 96/258/104
f 96/258/104 104/262/104 112/218/104
f 112/218/104 120/269/104 128/219/104
f 128/219/104 136/276/104 144/220/104
f 144/220/104 96/258/104 112/218/104
